# xmcd
#
# Track frame offsets: 
#        150
#        21003
#        37353
#        54021
#        70962
#        88305
#        113243
#        131365
#        148228
#        181963
#        209682
#        222674
#
# Disc length: 3120 seconds
#
# Revision: 0
# Processed by: cddbd v1.4PL0 Copyright (c) Steve Scherf et al.
# Submitted via: ExactAudioCopy v0.90b4
#
DISCID=bf0c2e0c
DTITLE=E-Z Go Band - Over Easy
DYEAR=2000
DGENRE=Blues
TTITLE0=Six Foot Woman
TTITLE1=I Wonder Why
TTITLE2=Too Sorry For You
TTITLE3=Tupelo Gibson
TTITLE4=Eternity
TTITLE5=Teeny Weeny Bit Of Your Love
TTITLE6=Red-Headed Woman
TTITLE7=Border
TTITLE8=My Overhead
TTITLE9=Son Of The Blues
TTITLE10=Easy Girls
TTITLE11=No Samba In This Town
EXTD=
EXTT0=
EXTT1=
EXTT2=
EXTT3=
EXTT4=
EXTT5=
EXTT6=
EXTT7=
EXTT8=
EXTT9=
EXTT10=
EXTT11=
PLAYORDER=
